<?xml version="1.0" encoding="utf-8"?><!-- Uploaded to: SVG Repo, www.svgrepo.com, Generator: SVG Repo Mixer Tools -->
<svg width="800px" height="800px" viewBox="0 0 24 24" fill="none" xmlns="http://www.w3.org/2000/svg">
<path d="M8.21922 4H5C4.44772 4 4 4.44772 4 5V6C4 13.732 10.268 20 18 20H19C19.5523 20 20 19.5523 20 19V15.7808C20 15.3219 19.6877 14.9219 19.2425 14.8106L16.5493 14.1373C16.2085 14.0521 15.848 14.152 15.5996 14.4004L15.0023 14.9977C15.0008 14.9992 14.9988 15 14.9967 15C11.6848 15 9 12.3152 9 9.00329C9 9.00118 9.00084 8.99916 9.00232 8.99768L9.59964 8.40036C9.84802 8.15198 9.94787 7.79149 9.86268 7.45072L9.18937 4.75746C9.07807 4.3123 8.67809 4 8.21922 4Z" stroke="#200E32" stroke-width="2" stroke-linecap="round"/>
</svg>